<svg width="20" height="30" viewBox="0 0 20 30" fill="none" xmlns="http://www.w3.org/2000/svg">
<path d="M14.7715 28.536C14.8418 28.5775 14.887 28.6113 14.9157 28.6363C14.887 28.6613 14.8418 28.6952 14.7715 28.7367C14.5548 28.8648 14.2081 28.9974 13.7357 29.1155C12.7987 29.3498 11.4777 29.5 10 29.5C8.52235 29.5 7.20137 29.3498 6.26434 29.1155C5.79198 28.9974 5.44519 28.8648 5.22853 28.7367C5.15827 28.6952 5.11303 28.6613 5.08431 28.6363C5.11303 28.6113 5.15827 28.5775 5.22853 28.536C5.44519 28.4079 5.79198 28.2753 6.26434 28.1572C7.20137 27.9229 8.52235 27.7727 10 27.7727C11.4777 27.7727 12.7987 27.9229 13.7357 28.1572C14.2081 28.2753 14.5548 28.4079 14.7715 28.536Z" fill="#FF9900" stroke="#FF9900"/>
<path fill-rule="evenodd" clip-rule="evenodd" d="M10 26.3636C10 26.3636 20 20.4545 20 9.88636C20 4.42628 15.5228 0 10 0C4.47715 0 0 4.42628 0 9.88636C0 20.4545 10 26.3636 10 26.3636ZM10 13.6364C12.5104 13.6364 14.5455 11.6013 14.5455 9.09091C14.5455 6.58052 12.5104 4.54545 10 4.54545C7.48961 4.54545 5.45455 6.58052 5.45455 9.09091C5.45455 11.6013 7.48961 13.6364 10 13.6364Z" fill="#FEC72F"/>
</svg>
