<svg width="34" height="34" viewBox="0 0 34 34" fill="none" xmlns="http://www.w3.org/2000/svg">
<path d="M18.6667 10.3333C19.9927 10.3333 21.2645 10.8601 22.2022 11.7978C23.1399 12.7355 23.6667 14.0073 23.6667 15.3333C23.6667 15.7754 23.8423 16.1993 24.1548 16.5118C24.4674 16.8244 24.8913 17 25.3333 17C25.7754 17 26.1993 16.8244 26.5118 16.5118C26.8244 16.1993 27 15.7754 27 15.3333C27 13.1232 26.122 11.0036 24.5592 9.44078C22.9964 7.87797 20.8768 7 18.6667 7C18.2246 7 17.8007 7.1756 17.4882 7.48816C17.1756 7.80072 17 8.22464 17 8.66667C17 9.10869 17.1756 9.53262 17.4882 9.84518C17.8007 10.1577 18.2246 10.3333 18.6667 10.3333Z" fill="white"/>
<path d="M33.2499 23.5167C33.1582 23.2491 33 23.0093 32.7901 22.8198C32.5801 22.6303 32.3254 22.4973 32.0499 22.4334L22.0499 20.15C21.7785 20.0885 21.496 20.0959 21.2281 20.1716C20.9603 20.2473 20.7157 20.3889 20.5166 20.5834C20.2833 20.8 20.2666 20.8167 19.1833 22.8834C15.5886 21.227 12.7082 18.3348 11.0666 14.7334C13.1833 13.6667 13.1999 13.6667 13.4166 13.4167C13.6111 13.2176 13.7527 12.973 13.8284 12.7052C13.9041 12.4373 13.9115 12.1548 13.8499 11.8834L11.5666 2.00004C11.5027 1.72453 11.3697 1.46983 11.1802 1.25989C10.9906 1.04996 10.7508 0.891711 10.4833 0.800041C10.094 0.661023 9.6921 0.560541 9.28325 0.500041C8.86201 0.402366 8.43214 0.34654 7.99992 0.333374C5.96659 0.333374 4.01655 1.14111 2.57877 2.57889C1.14099 4.01667 0.333252 5.96671 0.333252 8.00004C0.342072 14.8046 3.04906 21.3278 7.86059 26.1394C12.6721 30.9509 19.1954 33.6579 25.9999 33.6667C27.0067 33.6667 28.0037 33.4684 28.9338 33.0831C29.864 32.6978 30.7092 32.1331 31.4211 31.4212C32.133 30.7093 32.6977 29.8641 33.083 28.9339C33.4683 28.0038 33.6666 27.0068 33.6666 26C33.6671 25.5758 33.6337 25.1523 33.5666 24.7334C33.4965 24.3194 33.3906 23.9123 33.2499 23.5167Z" fill="#FEC72F"/>
<path d="M26.9155 7.08379C24.7276 4.89587 21.7601 3.66671 18.6659 3.66671C18.2239 3.66671 17.8 3.49111 17.4874 3.17855C17.1749 2.86599 16.9993 2.44207 16.9993 2.00004C16.9993 1.55801 17.1749 1.13409 17.4874 0.821529C17.8 0.508969 18.2239 0.333374 18.6659 0.333374C22.6442 0.333374 26.4595 1.91373 29.2725 4.72677C32.0856 7.53982 33.6659 11.3551 33.6659 15.3334C33.6659 15.7754 33.4903 16.1993 33.1778 16.5119C32.8652 16.8244 32.4413 17 31.9993 17C31.5572 17 31.1333 16.8244 30.8208 16.5119C30.5082 16.1993 30.3326 15.7754 30.3326 15.3334C30.3326 12.2392 29.1034 9.27172 26.9155 7.08379Z" fill="white"/>
</svg>
