<svg width="74" height="56" viewBox="0 0 74 56" fill="none" xmlns="http://www.w3.org/2000/svg">
<path fill-rule="evenodd" clip-rule="evenodd" d="M28.2482 8.87146C29.4564 6.38837 28.4229 3.39601 25.9398 2.18781C23.4567 0.979612 20.4643 2.01311 19.2561 4.49621L5.93699 31.8699C5.93564 31.8726 5.93679 31.876 5.93955 31.8773C5.9424 31.8787 5.94352 31.8822 5.94201 31.8849C5.85491 32.0464 5.77079 32.2105 5.68976 32.377C2.54698 38.8361 5.23538 46.6199 11.6945 49.7627C18.1535 52.9055 25.9374 50.2171 29.0802 43.758C32.2229 37.2989 29.5345 29.5151 23.0755 26.3723C21.6833 25.695 20.8695 24.0362 21.5469 22.644L28.2482 8.87146Z" fill="#FEC72F"/>
<path fill-rule="evenodd" clip-rule="evenodd" d="M57.2247 8.87146C58.4329 6.38837 57.3994 3.39601 54.9163 2.18781V2.18781C52.4332 0.979612 49.4409 2.01312 48.2327 4.49621L34.7127 32.2826C34.6972 32.314 34.6817 32.3454 34.6663 32.377C34.651 32.4086 34.6357 32.4402 34.6207 32.4718L34.5603 32.5958C34.5601 32.5963 34.5603 32.5968 34.5607 32.5971V32.5971C34.5612 32.5973 34.5614 32.5978 34.5612 32.5983C31.5853 39.0129 34.2855 46.6557 40.671 49.7627C47.1301 52.9055 54.9139 50.2171 58.0567 43.758C61.1995 37.2989 58.5111 29.5151 52.052 26.3723V26.3723C50.6599 25.695 49.8461 24.0362 50.5234 22.644L57.2247 8.87146Z" fill="#FEC72F"/>
</svg>
